{"title":"Frozen 2013 DVDScr x264 AC3 CrEwSaDe","uid":9451660,"size":1491047195,"categoryP":"video","categoryS":"movies","magnet":"?xt=urn:btih:96ac194f7dde4d757b48b883cd47648062ce4eff&amp;dn=Frozen+2013+DVDScr+x264+AC3+CrEwSaDe+&amp;tr=udp%3A%2F%2Ftracker.openbittorrent.com%3A80&amp;tr=udp%3A%2F%2Fopen.demonii.com%3A1337&amp;tr=udp%3A%2F%2Ftracker.coppersurfer.tk%3A6969&amp;tr=udp%3A%2F%2Fexodus.desync.com%3A6969","seeders":2,"leechers":0,"uploader":"NewSky005","files":3,"time":1389192921,"description":"\n                    **Frozen.2013.DVDScr.x264.AC3.CrEwSaDe **\n\n******************************************************************************************************\n                                                   \nVideo Codec.......:AVC\nVideo Bitrate.....:1 567 Kbps                \nAudio Codec.......:AC-3                                                    \nResolution........:720x304\nRuntime...........:1h 40mn                            \nRelease Date......:07/01/14\nTheatre Date......:27 November 2013 (USA)  \nLanguage..........:English\nSubtitles.........:N/A\nIMDB Rating.......:8.1\nIMDb URL..........:http://www.imdb.com/title/tt2294629\n\n_______________________________________________________________________________\n\nGeneral\nUnique ID                                : 204129741239699570431095066672232713754 (0x9991F5474F61B9BCAD29CF337104CE1A)\nComplete name                            : C:UsersrootDownloadsFrozen.2013.DVDScr.x264.AC3.CrEwSaDeFrozen.2013.DVDScr.x264.AC3.CrEwSaDe.mkv\nFormat                                   : Matroska\nFormat version                           : Version 2\nFile size                                : 1.37 GiB\nDuration                                 : 1h 40mn\nOverall bit rate                         : 1 949 Kbps\nEncoded date                             : UTC 2014-01-08 02:27:54\nWriting application                      : mkvmerge v6.5.0 ('Isn't she lovely') built on Oct 20 2013 12:50:05\nWriting library                          : libebml v1.3.0 + libmatroska v1.4.1\n\n________________________________________________________________________________\n\n\nVideo\nID                                       : 1\nFormat                                   : AVC\nFormat/Info                              : Advanced Video Codec\nFormat profile                           : &lt;a class=&quot;__cf_email__&quot; href=&quot;/cdn-cgi/l/email-protection&quot; data-cfemail=&quot;db93b2bcb39b97e8f5ea&quot;&gt;[email&amp;#160;protected]&lt;/a&gt;&lt;script cf-hash='f9e31' type=&quot;text/javascript&quot;&gt;\n/* &lt;![CDATA[ */!function(){try{var t=&quot;currentScript&quot;in document?document.currentScript:function(){for(var t=document.getElementsByTagName(&quot;script&quot;),e=t.length;e--;)if(t[e].getAttribute(&quot;cf-hash&quot;))return t[e]}();if(t&amp;&amp;t.previousSibling){var e,r,n,i,c=t.previousSibling,a=c.getAttribute(&quot;data-cfemail&quot;);if(a){for(e=&quot;&quot;,r=parseInt(a.substr(0,2),16),n=2;a.length-n;n+=2)i=parseInt(a.substr(n,2),16)^r,e+=String.fromCharCode(i);e=document.createTextNode(e),c.parentNode.replaceChild(e,c)}}}catch(u){}}();/* ]]&gt; */&lt;/script&gt;\nFormat settings, CABAC                   : Yes\nFormat settings, ReFrames                : 4 frames\nCodec ID                                 : V_MPEG4/ISO/AVC\nDuration                                 : 1h 40mn\nBit rate                                 : 1 567 Kbps\nWidth                                    : 720 pixels\nHeight                                   : 304 pixels\nDisplay aspect ratio                     : 2.35:1\nFrame rate                               : 29.970 fps\nColor space                              : YUV\nChroma subsampling                       : 4:2:0\nBit depth                                : 8 bits\nScan type                                : Progressive\nBits/(Pixel*Frame)                       : 0.239\nStream size                              : 1.08 GiB (78%)\nWriting library                          : x264 core 138 r2358 9e941d1\nEncoding settings                        : cabac=1 / ref=3 / deblock=1:-2:-2 / analyse=0x3:0x113 / me=hex / subme=7 / psy=1 / psy_rd=1.00:0.25 / mixed_ref=1 / me_range=16 / chroma_me=1 / trellis=1 / 8x8dct=1 / cqm=0 / deadzone=6,6 / fast_pskip=1 / chroma_qp_offset=-4 / threads=6 / lookahead_threads=1 / sliced_threads=0 / nr=0 / decimate=0 / interlaced=0 / bluray_compat=0 / constrained_intra=0 / bframes=3 / b_pyramid=2 / b_adapt=1 / b_bias=0 / direct=1 / weightb=1 / open_gop=0 / weightp=2 / keyint=300 / keyint_min=29 / scenecut=40 / intra_refresh=0 / rc_lookahead=40 / rc=2pass / mbtree=1 / bitrate=1567 / ratetol=1.0 / qcomp=0.80 / qpmin=0 / qpmax=69 / qpstep=4 / cplxblur=20.0 / qblur=0.5 / vbv_maxrate=17500 / vbv_bufsize=17500 / nal_hrd=none / ip_ratio=1.10 / aq=1:0.50\nDefault                                  : Yes\nForced                                   : No\n\n_________________________________________________________________________________\n\n\nAudio\nID                                       : 2\nFormat                                   : AC-3\nFormat/Info                              : Audio Coding 3\nMode extension                           : CM (complete main)\nCodec ID                                 : A_AC3\nDuration                                 : 1h 40mn\nBit rate mode                            : Constant\nBit rate                                 : 384 Kbps\nChannel(s)                               : 6 channels\nChannel positions                        : Front: L C R, Side: L R, LFE\nSampling rate                            : 48.0 KHz\nBit depth                                : 16 bits\nCompression mode                         : Lossy\nStream size                              : 277 MiB (20%)\nDefault                                  : Yes\nForced                                   : No\n[img]http://i1179.photobucket.com/albums/x394/crewsade/Knife/vlcsnap-2014-01-08-00h51m18s241.png[/img]\n[img]http://i1179.photobucket.com/albums/x394/crewsade/Knife/vlcsnap-2014-01-08-01h03m57s156.png[/img]\n[img]http://i1179.photobucket.com/albums/x394/crewsade/Knife/vlcsnap-2014-01-08-01h02m04s50.png[/img]\n[img]http://i1179.photobucket.com/albums/x394/crewsade/Knife/vlcsnap-2014-01-08-00h56m22s217.png[/img]","torrent":{"xt":"urn:btih:96ac194f7dde4d757b48b883cd47648062ce4eff","amp;dn":"Frozen+2013+DVDScr+x264+AC3+CrEwSaDe+","amp;tr":["udp%3A%2F%2Ftracker.openbittorrent.com%3A80","udp%3A%2F%2Fopen.demonii.com%3A1337","udp%3A%2F%2Ftracker.coppersurfer.tk%3A6969","udp%3A%2F%2Fexodus.desync.com%3A6969"],"infoHash":"96ac194f7dde4d757b48b883cd47648062ce4eff","infoHashBuffer":{"type":"Buffer","data":[150,172,25,79,125,222,77,117,123,72,184,131,205,71,100,128,98,206,78,255]},"announce":[],"urlList":[]}}